<?xml version="1.0" encoding="utf-8"?>
<!DOCTYPE svg PUBLIC "-//W3C//DTD SVG 1.0//EN" "http://www.w3.org/TR/2001/REC-SVG-20010904/DTD/svg10.dtd">
<svg version="1.0" xmlns="http://www.w3.org/2000/svg" width="512px" height="512px" viewBox="0 0 512 512" preserveAspectRatio="xMidYMid meet">
 <g fill="#40517f">
  <path d="M245.7 367.9 c-2.1 -0.3 -4.7 -1.5 -5.7 -2.5 -2.5 -2.7 -9.8 -19.9 -10.9 -26 -1.5 -8 -10.5 -28.7 -14.2 -32.8 -1.9 -2.1 -0.7 -6.9 3.6 -13.9 2.5 -4.1 4.5 -8.4 4.5 -9.6 0 -3.3 -2.5 -8.5 -7.3 -15.3 -2.5 -3.5 -5.7 -8.7 -7.2 -11.6 -2.8 -5.3 -2.8 -6.8 -0.9 -15.9 1.3 -6.6 -1.9 -10.3 -8.9 -10.3 -1 0 -4.2 -1.8 -7 -4.1 -6 -4.7 -8.5 -4.7 -15.1 -0.1 -3.4 2.4 -4.7 2.7 -10.5 2.5 -3.6 -0.2 -10.7 -0.3 -15.8 -0.2 -5.3 0 -10.2 -0.5 -11.5 -1.2 -2.5 -1.3 -8.6 -7.3 -13.5 -13.4 -1.8 -2.2 -5 -6.2 -7.2 -9 -5.2 -6.4 -6 -10.2 -3.3 -16.3 1.5 -3.5 2.2 -7.5 2.5 -15.3 0.7 -15 4.3 -21.1 16 -26.8 5.4 -2.7 6.5 -4.1 9.6 -13.2 1 -2.6 3.5 -6.7 5.6 -9.1 l3.9 -4.3 8.1 0.2 c9.6 0.3 19.7 -1.3 23.9 -3.8 5 -2.8 16.3 -5.2 21.5 -4.5 5.9 0.8 7.1 2.4 6.4 9 -0.6 5.8 0.3 7.1 5.2 7.9 2.8 0.4 2.7 0.4 -0.7 0.6 -4.9 0.2 -6.9 -2.6 -6.1 -8.5 0.5 -3.8 0.3 -4.4 -2.2 -6 -4.2 -2.8 -14.8 -0.7 -28.7 5.8 -10 4.6 -12.1 5.2 -18.5 5.3 -7.4 0.2 -11.3 1.9 -11.3 5.1 0 0.7 -0.8 1.9 -1.8 2.6 -1 0.7 -2.6 4.6 -3.6 8.8 -2.4 9.3 -3.8 11.6 -8.2 13 -7.4 2.5 -14 14.6 -11.4 20.9 0.8 2.1 1 5.6 0.5 11.5 -0.7 8.2 -0.6 8.6 2.1 12.8 6.2 9.4 21.7 17.8 30.2 16.3 5.1 -0.8 13.2 -3.4 16.2 -5 1.4 -0.7 5 -1.6 8 -2 5.3 -0.6 5.7 -0.5 10.5 3.1 2.8 2.1 5.6 4.4 6.4 5.2 0.8 0.8 2.2 1.1 3.5 0.7 4.8 -1.6 9.7 -1.7 11.9 -0.2 3.1 2 6.5 12.4 6.6 20.2 0.2 10.8 1.8 17.3 6.6 26.1 7.5 14 7.8 19.3 1.8 32.1 -2.3 4.7 -2.4 5.9 -1.5 9.1 1.4 4.7 2.9 14 3.7 21.7 0.6 6 2.1 11.3 5.6 19.2 1.1 2.4 1.9 4.5 1.9 4.8 0 1.8 5.6 8.9 8.3 10.5 7.9 4.8 22.4 -0.2 28.1 -9.8 3.9 -6.5 7.9 -12.2 8.7 -12.2 0.5 0 0.9 -0.6 0.9 -1.4 0 -1.3 3 -4.2 9.5 -9.3 2.5 -2 2.7 -2.4 1.6 -5.4 -0.6 -1.7 -1.1 -5.1 -1.1 -7.5 0 -3.5 0.5 -4.7 3.1 -6.9 1.8 -1.4 5 -3.5 7.3 -4.6 2.2 -1.1 3.2 -1.3 2.1 -0.5 -1.1 0.8 -3.9 2.9 -6.2 4.7 -4.7 3.5 -5.3 5.9 -3.2 14.8 l1 4.3 -5.4 5.2 c-4.8 4.6 -11 13.6 -16 23.2 -4 7.8 -19.9 13.4 -32 11.3z"/>
  <path d="M313.1 338.6 c-2 -2.1 -2.2 -3.1 -1.7 -6.8 0.4 -2.4 0.8 -5.6 0.9 -7.3 0.2 -2.4 0.7 -3.1 2.7 -3.3 1.4 -0.2 2 0.1 1.4 0.5 -1.1 0.8 -2.1 4 -3.1 10.1 -0.7 4.6 1.9 7.5 6.1 6.7 2.9 -0.6 3 -0.5 1.2 1 -2.8 2.1 -4.9 1.9 -7.5 -0.9z"/>
 </g>
 <g fill="#2cc3f8">
  <path d="M322 332.9 c0 -2.4 0.5 -5.1 1 -5.9 0.6 -1 0.7 0.3 0.3 4 -0.7 6.9 -1.3 7.7 -1.3 1.9z"/>
  <path d="M288.2 295.8 c-0.7 -0.7 -1.2 -2.4 -1.2 -3.8 0 -4 -1 -4.3 -3.4 -0.8 -2.7 4 -4.2 4.5 -5.6 1.8 -0.9 -1.7 -0.8 -3.3 0.5 -7.2 0.9 -2.8 1.4 -5.3 1.1 -5.6 -0.3 -0.3 -0.7 -0.3 -0.9 -0.1 -0.2 0.2 -1.9 2.6 -3.7 5.2 -2.5 3.5 -4 4.7 -5.5 4.5 -1.3 -0.2 -1.9 -0.9 -1.7 -2.2 0.4 -2.3 1.8 -5.6 3.4 -7.8 2.6 -3.7 -0.5 -2.9 -4.4 1 -4 4.1 -7 5.2 -8.3 3.2 -0.8 -1.3 2 -5.8 5.2 -8.3 1.3 -1 2.1 -2.3 1.7 -2.8 -0.3 -0.5 -2 0.2 -3.8 1.6 -4.4 3.3 -9.4 5.1 -10.8 3.7 -2 -2 8.3 -11.3 19.6 -17.7 10.5 -5.9 12.3 -7.5 8.9 -7.5 -1.7 -0.1 -1.7 -0.1 0 -1.4 2.6 -2 2.1 -2.3 -3.7 -1.8 -2.9 0.2 -6.2 0 -7.2 -0.6 -1.6 -0.9 -1.3 -1.2 2.4 -1.8 6.3 -1 5.1 -2.4 -2.2 -2.4 -6.5 0 -12.6 -1.5 -12.6 -3.1 0 -0.5 3.5 -0.9 7.9 -0.9 4.3 0 9.3 -0.3 11 -0.6 6.2 -1.3 2.9 -1.9 -7.8 -1.6 -11.9 0.4 -18.2 -1 -21.8 -5.1 -1.8 -2 -1.8 -2 3.2 -1.3 11.6 1.6 20.5 1.9 20.5 0.7 0 -0.7 -1.9 -1.1 -4.8 -1.1 -5.9 0 -18.5 -3.1 -23.9 -5.9 -4 -2 -7 -4.8 -6.1 -5.6 0.5 -0.5 5.6 0.9 9.3 2.6 3.5 1.5 18.2 4.9 21.4 4.9 1.7 0 3.1 -0.4 3.1 -1 0 -0.5 -1 -0.9 -2.2 -0.8 -7 0.5 -26.5 -6.7 -34.5 -12.8 -3.4 -2.6 -5.9 -6.2 -4.9 -7.2 0.3 -0.3 5 1.8 10.3 4.6 9.6 4.9 25 10.8 26 9.8 1.1 -1 -0.8 -2.4 -4.2 -3 -11.3 -2.1 -30.5 -14.9 -35.3 -23.5 -3.1 -5.5 -1.4 -5.3 7.2 1.2 9.1 6.8 25.7 16.7 28.1 16.7 1.9 0 -0.2 -2 -3.7 -3.6 -15.9 -7.1 -35.8 -25.4 -35.8 -32.9 0 -2.3 1.2 -1.8 5 1.8 11.7 11.1 28 23.6 31.3 24.1 0.6 0.1 1.8 0.5 2.5 0.9 0.6 0.5 1.2 0.5 1.2 0 0 -0.4 -1.9 -1.9 -4.3 -3.2 -12.6 -7.1 -28.9 -22.8 -33.7 -32.3 -3 -6.1 -3.7 -8.8 -2.2 -8.8 0.4 0 4.6 4.1 9.2 9.2 14.3 15.4 26 25.5 28.2 24.2 0.5 -0.3 -1.1 -1.9 -3.4 -3.6 -5.9 -4.2 -17.2 -15.3 -21.8 -21.4 -8.5 -11.3 -11.9 -22.4 -8.8 -28.3 2.7 -5.1 5 -3.7 8.8 5.8 4.4 10.7 8.5 16.4 20 27.7 14 13.7 27.9 23.1 42 28.7 6.2 2.4 16.4 4 20.4 3.3 3 -0.6 3.8 -1.5 7.1 -8.2 4.8 -9.7 9.9 -13.4 18.3 -13.4 5 0 5.6 0.3 10 4.5 2.5 2.5 6.1 5.1 7.9 5.7 3.5 1.3 4.4 2.8 1.7 2.8 -0.9 0 -2.9 0.9 -4.5 2.1 -3.5 2.5 -3.7 5.4 -0.8 10.4 1.9 3.2 2.1 4.7 1.6 11.5 -0.3 4.4 -1.2 9.3 -2.1 11.1 -1.8 3.7 -1.9 3.9 -0.8 3.9 1.6 0 5.4 -10.6 6.5 -18.2 0.8 -5.2 1.7 -8.4 2.7 -8.9 0.8 -0.4 5.5 -2 10.3 -3.5 15.8 -4.8 35 -19.1 44.3 -33.1 1.9 -2.9 3.9 -5.3 4.4 -5.3 1.5 0 2.1 3.6 1.1 6.2 -0.9 2.5 -9.5 13.7 -11.5 15 -0.6 0.4 -0.7 1 -0.4 1.4 0.4 0.3 2.8 -1.3 5.3 -3.7 2.6 -2.4 5.1 -4.6 5.7 -4.8 2.6 -0.9 -5.2 10.6 -10.5 15.5 -3.3 3 -5.7 5.7 -5.5 6 0.3 0.2 3.2 -1.6 6.5 -4.1 3.4 -2.5 6.4 -4.5 6.7 -4.5 2.6 0 -7.8 11.9 -12.9 14.8 -1.1 0.6 -1.7 1.3 -1.3 1.7 0.3 0.4 2.7 -0.5 5.2 -2 3.1 -1.8 4.6 -2.3 4.6 -1.4 0 2.1 -9.8 10.7 -13 11.4 -1.7 0.4 -3 1.1 -3 1.7 0 0.6 1 0.8 2.3 0.5 1.2 -0.3 3.6 -0.9 5.2 -1.2 l3 -0.6 -3.5 3.1 c-3.5 3 -12.4 7 -16 7 -1 0 -2.2 0.5 -2.6 1.2 -0.5 0.8 0.8 0.9 4.9 0.5 3 -0.4 6.2 -1 7.1 -1.3 0.9 -0.3 1.6 -0.2 1.6 0.4 0 1 -11.3 6.2 -13.6 6.2 -0.8 0 -1.2 0.5 -0.9 1 0.4 0.6 1.5 0.8 2.6 0.5 3.8 -1.2 1.8 1.4 -2.8 3.7 -3.8 1.8 -6.4 2.3 -12.5 2.3 -10.7 0 -10.2 1.2 1 2.8 2.6 0.4 1.6 2.1 -1.8 3 -3.4 0.9 -9.2 0.5 -13.7 -0.9 -1.4 -0.4 -2.3 -0.2 -2.3 0.5 0 0.6 2 1.6 4.5 2.3 5.4 1.5 5.7 2.5 1 3.4 -3.6 0.6 -7.7 0.3 -10.7 -1.1 -1.1 -0.4 -1.8 -0.3 -1.8 0.3 0 0.6 0.9 1.4 2 1.7 1.1 0.4 1.7 1.1 1.4 1.7 -0.8 1.3 -11 0.4 -12.9 -1.2 -1 -0.8 -2.1 -0.8 -4.2 0.3 -1.5 0.8 -7.3 2.9 -12.9 4.6 -11.3 3.5 -18.6 7.7 -20.7 11.8 -1.5 2.9 -1.6 6 -0.2 15.6 0.6 4.8 0.5 5.7 -0.7 5.7 -2.1 0 -3.7 -2.1 -4.4 -5.8 -1 -4.8 -2.1 -3.8 -2.7 2.5 -0.7 6.2 -2.5 9.1 -4.5 7.1z m39.8 -41.8 c0.8 -0.5 1.2 -1.1 1 -1.4 -0.8 -0.7 -6 0.6 -6 1.5 0 1.2 3.1 1.1 5 -0.1z m6.8 -3.8 c0.2 -0.7 -0.2 -1 -1.2 -0.6 -0.9 0.3 -1.6 1.1 -1.6 1.6 0 1.3 2.3 0.5 2.8 -1z m-51.3 -12.2 c0.3 -0.5 -0.3 -1 -1.4 -1 -1.2 0 -2.1 0.5 -2.1 1 0 0.6 0.6 1 1.4 1 0.8 0 1.8 -0.4 2.1 -1z m-8.7 -23.2 c-0.2 -0.6 -1 -1.4 -1.6 -1.6 -0.7 -0.2 -1 0.2 -0.6 1.2 0.7 1.8 2.8 2.2 2.2 0.4z m-1.8 -3.4 c0 -0.3 -1.1 -2.2 -2.5 -4.2 -2.8 -4.2 -3.2 -3.7 -1.1 1.3 0.8 1.9 2 3.5 2.5 3.5 0.6 0 1.1 -0.2 1.1 -0.6z"/>
 </g>
</svg>